<svg width="24" height="24" viewBox="0 0 24 24" fill="none" xmlns="http://www.w3.org/2000/svg">
    <path d="M16.6957 2C15.728 2.00014 14.7788 2.30496 13.951 2.8814C13.1232 3.45785 12.4485 4.28391 12 5.27C11.4489 4.06378 10.5625 3.10448 9.48211 2.54506C8.40173 1.98563 7.18958 1.8583 6.03893 2.18335C4.88829 2.50841 3.86542 3.26714 3.1334 4.33857C2.40138 5.41 2.00238 6.73243 2 8.095C2 11.46 3.81739 14.535 6.16522 17.06C7.97649 18.9058 9.92939 20.5593 12 22C14.0551 20.5327 16.0061 18.8809 17.8348 17.06C20.4435 14.32 22 11.46 22 8.095C22 7.29417 21.8628 6.5012 21.5961 5.76139C21.3295 5.02159 20.9387 4.34946 20.4461 3.78342C19.9535 3.21738 19.3687 2.76853 18.7252 2.46252C18.0817 2.15651 17.392 1.99935 16.6957 2Z" fill="#1CA677" />
</svg>
